<?xml version="1.0" encoding="UTF-8" standalone="no"?>
<!DOCTYPE svg PUBLIC "-//W3C//DTD SVG 1.1//EN"
 "http://www.w3.org/Graphics/SVG/1.1/DTD/svg11.dtd">
<!-- Generated by graphviz version 2.40.1 (20161225.0304)
 -->
<!-- Title: %3 Pages: 1 -->
<svg width="134pt" height="278pt"
 viewBox="0.00 0.00 134.00 277.69" xmlns="http://www.w3.org/2000/svg" xmlns:xlink="http://www.w3.org/1999/xlink">
<g id="graph0" class="graph" transform="scale(1 1) rotate(0) translate(4 273.692)">
<title>%3</title>
<polygon fill="#ffffff" stroke="transparent" points="-4,4 -4,-273.692 130,-273.692 130,4 -4,4"/>
<!-- 2184191325239215177 -->
<g id="node1" class="node">
<title>2184191325239215177</title>
<polygon fill="none" stroke="#000000" points="126,-114.8962 72,-114.8962 72,-78.8962 126,-78.8962 126,-114.8962"/>
</g>
<!-- &#45;6459913697583862825 -->
<g id="node6" class="node">
<title>&#45;6459913697583862825</title>
<ellipse fill="none" stroke="#000000" cx="63" cy="-174.2941" rx="23.2963" ry="23.2963"/>
<text text-anchor="middle" x="63" y="-170.5941" font-family="Times,serif" font-size="14.00" fill="#000000">add</text>
</g>
<!-- 2184191325239215177&#45;&gt;&#45;6459913697583862825 -->
<g id="edge4" class="edge">
<title>2184191325239215177&#45;&gt;&#45;6459913697583862825</title>
<path fill="none" stroke="#000000" d="M90.4685,-115.2384C86.5076,-123.7542 81.6915,-134.1085 77.2049,-143.7543"/>
<polygon fill="#000000" stroke="#000000" points="73.9161,-142.5263 72.8721,-153.0696 80.2631,-145.4786 73.9161,-142.5263"/>
</g>
<!-- 2480581601079142962 -->
<g id="node2" class="node">
<title>2480581601079142962</title>
<ellipse fill="none" stroke="#000000" cx="99" cy="-21.4481" rx="21.3963" ry="21.3963"/>
<text text-anchor="middle" x="99" y="-17.7481" font-family="Times,serif" font-size="14.00" fill="#000000">inc</text>
</g>
<!-- 2480581601079142962&#45;&gt;2184191325239215177 -->
<g id="edge1" class="edge">
<title>2480581601079142962&#45;&gt;2184191325239215177</title>
<path fill="none" stroke="#000000" d="M99,-43.2708C99,-51.1046 99,-60.0581 99,-68.3759"/>
<polygon fill="#000000" stroke="#000000" points="95.5001,-68.4395 99,-78.4395 102.5001,-68.4395 95.5001,-68.4395"/>
</g>
<!-- &#45;583152881601971269 -->
<g id="node3" class="node">
<title>&#45;583152881601971269</title>
<polygon fill="none" stroke="#000000" points="54,-114.8962 0,-114.8962 0,-78.8962 54,-78.8962 54,-114.8962"/>
</g>
<!-- &#45;583152881601971269&#45;&gt;&#45;6459913697583862825 -->
<g id="edge5" class="edge">
<title>&#45;583152881601971269&#45;&gt;&#45;6459913697583862825</title>
<path fill="none" stroke="#000000" d="M35.5315,-115.2384C39.4924,-123.7542 44.3085,-134.1085 48.7951,-143.7543"/>
<polygon fill="#000000" stroke="#000000" points="45.7369,-145.4786 53.1279,-153.0696 52.0839,-142.5263 45.7369,-145.4786"/>
</g>
<!-- 3016133744942581232 -->
<g id="node4" class="node">
<title>3016133744942581232</title>
<ellipse fill="none" stroke="#000000" cx="27" cy="-21.4481" rx="21.3963" ry="21.3963"/>
<text text-anchor="middle" x="27" y="-17.7481" font-family="Times,serif" font-size="14.00" fill="#000000">inc</text>
</g>
<!-- 3016133744942581232&#45;&gt;&#45;583152881601971269 -->
<g id="edge2" class="edge">
<title>3016133744942581232&#45;&gt;&#45;583152881601971269</title>
<path fill="none" stroke="#000000" d="M27,-43.2708C27,-51.1046 27,-60.0581 27,-68.3759"/>
<polygon fill="#000000" stroke="#000000" points="23.5001,-68.4395 27,-78.4395 30.5001,-68.4395 23.5001,-68.4395"/>
</g>
<!-- &#45;2477414141742066196 -->
<g id="node5" class="node">
<title>&#45;2477414141742066196</title>
<polygon fill="none" stroke="#000000" points="90,-269.692 36,-269.692 36,-233.692 90,-233.692 90,-269.692"/>
</g>
<!-- &#45;6459913697583862825&#45;&gt;&#45;2477414141742066196 -->
<g id="edge3" class="edge">
<title>&#45;6459913697583862825&#45;&gt;&#45;2477414141742066196</title>
<path fill="none" stroke="#000000" d="M63,-197.9366C63,-205.9386 63,-214.9582 63,-223.2908"/>
<polygon fill="#000000" stroke="#000000" points="59.5001,-223.3498 63,-233.3498 66.5001,-223.3498 59.5001,-223.3498"/>
</g>
</g>
</svg>
