<?xml version="1.0" encoding="UTF-8" standalone="no"?>
<!DOCTYPE svg PUBLIC "-//W3C//DTD SVG 1.1//EN"
 "http://www.w3.org/Graphics/SVG/1.1/DTD/svg11.dtd">
<!-- Generated by graphviz version 2.43.0 (0)
 -->
<!-- Title: %3 Pages: 1 -->
<svg width="134pt" height="293pt"
 viewBox="0.00 0.00 134.00 293.29" xmlns="http://www.w3.org/2000/svg" xmlns:xlink="http://www.w3.org/1999/xlink">
<g id="graph0" class="graph" transform="scale(1 1) rotate(0) translate(4 289.29)">
<title>%3</title>
<polygon fill="white" stroke="transparent" points="-4,4 -4,-289.29 130,-289.29 130,4 -4,4"/>
<!-- 7954089450558217815 -->
<g id="node1" class="node">
<title>7954089450558217815</title>
<ellipse fill="none" stroke="black" cx="63" cy="-185.34" rx="27.9" ry="27.9"/>
<text text-anchor="middle" x="63" y="-181.64" font-family="Times,serif" font-size="14.00">add</text>
</g>
<!-- 476240969865682528 -->
<g id="node2" class="node">
<title>476240969865682528</title>
<polygon fill="none" stroke="black" points="90,-285.29 36,-285.29 36,-249.29 90,-249.29 90,-285.29"/>
</g>
<!-- 7954089450558217815&#45;&gt;476240969865682528 -->
<g id="edge1" class="edge">
<title>7954089450558217815&#45;&gt;476240969865682528</title>
<path fill="none" stroke="black" d="M63,-213.41C63,-221.6 63,-230.6 63,-238.81"/>
<polygon fill="black" stroke="black" points="59.5,-239.03 63,-249.03 66.5,-239.03 59.5,-239.03"/>
</g>
<!-- 5894311259994676750 -->
<g id="node3" class="node">
<title>5894311259994676750</title>
<polygon fill="none" stroke="black" points="54,-121.4 0,-121.4 0,-85.4 54,-85.4 54,-121.4"/>
</g>
<!-- 5894311259994676750&#45;&gt;7954089450558217815 -->
<g id="edge2" class="edge">
<title>5894311259994676750&#45;&gt;7954089450558217815</title>
<path fill="none" stroke="black" d="M34.81,-121.74C38.57,-130.1 43.22,-140.41 47.65,-150.25"/>
<polygon fill="black" stroke="black" points="44.49,-151.76 51.79,-159.44 50.87,-148.89 44.49,-151.76"/>
</g>
<!-- 2985664595129865103 -->
<g id="node4" class="node">
<title>2985664595129865103</title>
<polygon fill="none" stroke="black" points="126,-121.4 72,-121.4 72,-85.4 126,-85.4 126,-121.4"/>
</g>
<!-- 2985664595129865103&#45;&gt;7954089450558217815 -->
<g id="edge3" class="edge">
<title>2985664595129865103&#45;&gt;7954089450558217815</title>
<path fill="none" stroke="black" d="M91.19,-121.74C87.43,-130.1 82.78,-140.41 78.35,-150.25"/>
<polygon fill="black" stroke="black" points="75.13,-148.89 74.21,-159.44 81.51,-151.76 75.13,-148.89"/>
</g>
<!-- &#45;6967022122046466982 -->
<g id="node5" class="node">
<title>&#45;6967022122046466982</title>
<ellipse fill="none" stroke="black" cx="99" cy="-24.7" rx="24.9" ry="24.9"/>
<text text-anchor="middle" x="99" y="-21" font-family="Times,serif" font-size="14.00">inc</text>
</g>
<!-- &#45;6967022122046466982&#45;&gt;2985664595129865103 -->
<g id="edge4" class="edge">
<title>&#45;6967022122046466982&#45;&gt;2985664595129865103</title>
<path fill="none" stroke="black" d="M99,-49.55C99,-57.71 99,-66.9 99,-75.3"/>
<polygon fill="black" stroke="black" points="95.5,-75.38 99,-85.38 102.5,-75.38 95.5,-75.38"/>
</g>
<!-- 4335667361002696694 -->
<g id="node6" class="node">
<title>4335667361002696694</title>
<ellipse fill="none" stroke="black" cx="27" cy="-24.7" rx="24.9" ry="24.9"/>
<text text-anchor="middle" x="27" y="-21" font-family="Times,serif" font-size="14.00">inc</text>
</g>
<!-- 4335667361002696694&#45;&gt;5894311259994676750 -->
<g id="edge5" class="edge">
<title>4335667361002696694&#45;&gt;5894311259994676750</title>
<path fill="none" stroke="black" d="M27,-49.55C27,-57.71 27,-66.9 27,-75.3"/>
<polygon fill="black" stroke="black" points="23.5,-75.38 27,-85.38 30.5,-75.38 23.5,-75.38"/>
</g>
</g>
</svg>
